<svg version="1" xmlns="http://www.w3.org/2000/svg" viewBox="0 0 700 700"><path d="M260 161.9a283.4 283.4 0 0 0-34.4 33c-24.1 28-39.5 52.1-74.6 116.6-29.4 54.2-44.3 77-61 93.5a100.2 100.2 0 0 1-14.8 12.1c-6.5 3.8-6.9 4.9-1.8 4.9 8.4 0 25.9-8.1 37-17 15.8-12.6 33-34.7 49.1-63 6.6-11.6 24.2-46.9 37-74.4a1033 1033 0 0 1 32.8-65.8c5.1-8.7 26.6-34.8 32.9-40.1 5.7-4.9 4.3-4.7-2.2.2zM274.6 158.7c-2.7.2-5.5 1.1-6.3 1.9-1.3 1.2-.7 1.4 4.7 1.4 8.5 0 23.9 1.8 34.5 4 5 1.1 20.5 3.5 34.5 5.5s34.5 5.1 45.4 7.1c10.9 1.9 20.8 3.2 22 2.9 1.7-.5 1.8-.4.6.5-1.2.9-1 1.1 1.2.7 1.5-.2 2.5-.1 2.3.3-.3.4 1.4 1.1 3.7 1.4 9.6 1.6 29.8 13.1 40.9 23.4l5.9 5.4-14.7 15.2c-24.4 24.9-38.1 45-77 113.2-22.7 39.6-37.4 64-48.1 79.5a319.7 319.7 0 0 1-35.7 42.8c-9.5 9-5.2 6.8 7.9-4a385 385 0 0 0 40.3-39.2c4.8-5.6 10.6-12.1 13-14.4 4.1-4.1 10.4-15.8 16.8-31.5 3.6-8.9 13.5-25.5 17.3-29.2 4-3.8 11.4-5.7 17.5-4.5a31 31 0 0 1 14.6 6.9l4.4 3.2-.6 12.2c-.9 17.6-2.4 22.8-19.1 68.5a69.4 69.4 0 0 0-6.3 25.1c-.8 12.5.9 21.6 5.1 27.8l3.1 4.7 8.7.3c5.5.2 10.9-.3 14.6-1.2 6.9-1.8 17.2-6.2 17.2-7.4 0-.4 3.5-3.6 7.9-7 11.1-8.8 15.7-14.1 16.6-19 .3-2.3.3-5.1 0-6.3-.7-2.2-.8-2.2-2.4.9-5.6 10.9-26.4 30.3-34.2 31.9-7 1.5-13.4-.5-18.2-5.7l-4-4.2.7-7.4c.7-7.5 2.9-17.2 7-30.4 9.1-29.4 11.7-40.1 12.3-51a55.4 55.4 0 0 0-10.8-38.2c-3.5-4.5-3.6-4.8-.5-4.8 3.3 0 24.6-6.3 33.3-9.8 25.4-10.4 43.5-28.3 49.9-49.7 2.6-8.5 2.6-31.2 0-41a74.1 74.1 0 0 0-13-26.9c-2.6-3.2-4.4-6.2-3.9-6.6 1.8-1.7 20-9.2 31.2-12.9a212 212 0 0 1 77.1-10.8c26.8.9 40.9 3.4 61.5 10.8 7.9 2.9 9.7 4 15.1 9.5 6.5 6.7 10 8.3 14 6.6l2.4-1.1-2.3-3.8a83 83 0 0 0-9.1-11.1 45 45 0 0 0-16-11.7 170 170 0 0 0-43.6-12.9c-23.1-4.1-23.8-4.2-34.9-3.4-26.9 2-45.9 8.2-85.4 27.9l-17.9 9-3.4-3a115.5 115.5 0 0 0-56.2-25.1c-19.4-3.6-21.6-4-36.2-5.5-8-.8-27.3-3.3-43-5.5a313.4 313.4 0 0 0-62.4-4.3zm202 71.8a120 120 0 0 1 7.5 29.2c1.1 7.9 1 10.2-.4 17.4a71.4 71.4 0 0 1-25.8 40.7c-9 7.3-14.7 10-28.8 13.9-12 3.2-32.1 5.7-32.1 3.9 0-1.3 13.9-30.7 21.4-45.1 16.2-31.4 29.3-50 44.1-62.8l7.9-6.9 2 2.4c1 1.2 2.9 4.5 4.2 7.3zM33 420.2c-4.1 2.1-4.7 2.9-6.7 8.8-4 11.4-2.3 19.6 6.6 31.3 3.7 5 11.7 10.2 21.2 13.8a976 976 0 0 0 78.4 19.4c17.1 3.6 34.7 7.6 39.3 8.7 14.8 3.7 41.5 1.4 61.1-5.2 7.3-2.4 26.3-10.2 25.9-10.5-.2-.2-4.2 1-9 2.6a106.9 106.9 0 0 1-43.8 6.4c-17.1 0-20.4-.3-27.1-2.2a1154 1154 0 0 0-41.6-9.7c-63.9-14.1-72.9-16.8-84.5-25.9a19.5 19.5 0 0 1-8.8-14.5c-1-7.1.8-12.1 5.7-16.1 4.4-3.6 3.5-5.9-2.8-7.8-6.2-1.8-8.8-1.6-13.9.9z"/></svg>